<svg width="24" height="24" fill="none" xmlns="http://www.w3.org/2000/svg"><path d="M6.5 16c.78333 0 1.54583.0875 2.2875.2625.74167.175 1.4792.4375 2.2125.7875V7.2c-.6833-.4-1.40833-.7-2.175-.9C8.05833 6.1 7.28333 6 6.5 6c-.6 0-1.19583.05833-1.7875.175C4.12083 6.29167 3.55 6.46667 3 6.7v9.9c.58333-.2 1.1625-.35 1.7375-.45C5.3125 16.05 5.9 16 6.5 16Zm6.5 1.05c.7333-.35 1.4708-.6125 2.2125-.7875C15.9542 16.0875 16.7167 16 17.5 16c.6 0 1.1875.05 1.7625.15.575.1 1.1542.25 1.7375.45V6.7c-.55-.23333-1.1208-.40833-1.7125-.525C18.6958 6.05833 18.1 6 17.5 6c-.7833 0-1.5583.1-2.325.3-.7667.2-1.4917.5-2.175.9v9.85Zm-1 2.425c-.2333 0-.4542-.0292-.6625-.0875-.2083-.0583-.4042-.1375-.5875-.2375-.65-.3833-1.33333-.6708-2.05-.8625C7.98333 18.0958 7.25 18 6.5 18c-.7 0-1.3875.0917-2.0625.275-.675.1833-1.32083.4417-1.9375.775-.35.1833-.6875.175-1.0125-.025-.325-.2-.4875-.4917-.4875-.875V6.1c0-.18333.04583-.35833.1375-.525.09167-.16667.22917-.29167.4125-.375.76667-.4 1.56667-.7 2.4-.9.83333-.2 1.68333-.3 2.55-.3.96667 0 1.9125.125 2.8375.375C10.2625 4.625 11.15 5 12 5.5c.85-.5 1.7375-.875 2.6625-1.125S16.5333 4 17.5 4c.8667 0 1.7167.1 2.55.3.8333.2 1.6333.5 2.4.9.1833.08333.3208.20833.4125.375S23 5.91667 23 6.1v12.05c0 .3833-.1625.675-.4875.875-.325.2-.6625.2083-1.0125.025-.6167-.3333-1.2625-.5917-1.9375-.775C18.8875 18.0917 18.2 18 17.5 18c-.75 0-1.4833.0958-2.2.2875-.7167.1917-1.4.4792-2.05.8625-.1833.1-.3792.1792-.5875.2375-.2083.0583-.4292.0875-.6625.0875Zm2-10.7c0-.15.0542-.30417.1625-.4625.1083-.15833.2292-.2625.3625-.3125.4833-.16667.9667-.29167 1.45-.375.4833-.08333.9917-.125 1.525-.125.3333 0 .6625.02083.9875.0625.325.04167.6458.09583.9625.1625.15.03333.2792.11667.3875.25.1083.13333.1625.28333.1625.45 0 .28333-.0917.49167-.275.625-.1833.13333-.4167.16667-.7.1-.2333-.05-.4792-.0875-.7375-.1125C18.0292 9.0125 17.7667 9 17.5 9c-.4333 0-.8583.04167-1.275.125-.4167.08333-.8167.19167-1.2.325-.3.11667-.5458.10833-.7375-.025-.1917-.13333-.2875-.35-.2875-.65Zm0 5.5c0-.15.0542-.3042.1625-.4625.1083-.1583.2292-.2625.3625-.3125.4833-.1667.9667-.2917 1.45-.375.4833-.0833.9917-.125 1.525-.125.3333 0 .6625.0208.9875.0625.325.0417.6458.0958.9625.1625.15.0333.2792.1167.3875.25.1083.1333.1625.2833.1625.45 0 .2833-.0917.4917-.275.625-.1833.1333-.4167.1667-.7.1-.2333-.05-.4792-.0875-.7375-.1125-.2583-.025-.5208-.0375-.7875-.0375-.4333 0-.8583.0375-1.275.1125-.4167.075-.8167.1792-1.2.3125-.3.1167-.5458.1125-.7375-.0125-.1917-.125-.2875-.3375-.2875-.6375Zm0-2.75c0-.15.0542-.3042.1625-.4625.1083-.1583.2292-.2625.3625-.3125.4833-.1667.9667-.2917 1.45-.375.4833-.0833.9917-.125 1.525-.125.3333 0 .6625.0208.9875.0625.325.0417.6458.0958.9625.1625.15.0333.2792.1167.3875.25.1083.1333.1625.2833.1625.45 0 .2833-.0917.4917-.275.625-.1833.1333-.4167.1667-.7.1-.2333-.05-.4792-.0875-.7375-.1125-.2583-.025-.5208-.0375-.7875-.0375-.4333 0-.8583.0417-1.275.125-.4167.0833-.8167.1917-1.2.325-.3.1167-.5458.1083-.7375-.025-.1917-.1333-.2875-.35-.2875-.65Z" fill="#5EAD05"/></svg>