<svg width="24" height="24" fill="none" xmlns="http://www.w3.org/2000/svg"><path d="m15.075 18.95-.85 2.425c-.0667.1833-.1833.3333-.35.45-.1667.1167-.35.175-.55.175-.3333 0-.6042-.1375-.8125-.4125-.2083-.275-.2458-.5792-.1125-.9125l3.8-10.05c.0833-.1833.2083-.3333.375-.45.1667-.1167.35-.175.55-.175h.75c.2 0 .3833.0583.55.175.1667.1167.2917.2667.375.45L22.6 20.7c.1333.3167.1.6125-.1.8875-.2.275-.4667.4125-.8.4125-.2167 0-.4042-.0583-.5625-.175s-.2792-.275-.3625-.475l-.85-2.4h-4.85ZM9.05 13.975 4.7 18.3c-.18333.1833-.4125.2792-.6875.2875C3.7375 18.5958 3.5 18.5 3.3 18.3c-.18333-.1833-.275-.4167-.275-.7 0-.2833.09167-.5167.275-.7l4.35-4.35c-.58333-.5833-1.1125-1.25-1.5875-2C5.5875 9.8 5.15 8.95 4.75 8h2.1c.33333.65.66667 1.21667 1 1.7.33333.4833.73333.9667 1.2 1.45.55-.55 1.1208-1.32083 1.7125-2.3125C11.3542 7.84583 11.8 6.9 12.1 6H2c-.28333 0-.52083-.09583-.7125-.2875C1.09583 5.52083 1 5.28333 1 5s.09583-.52083.2875-.7125C1.47917 4.09583 1.71667 4 2 4h6V3c0-.28333.09583-.52083.2875-.7125C8.47917 2.09583 8.71667 2 9 2s.52083.09583.7125.2875C9.90417 2.47917 10 2.71667 10 3v1h6c.2833 0 .5208.09583.7125.2875.1917.19167.2875.42917.2875.7125s-.0958.52083-.2875.7125C16.5208 5.90417 16.2833 6 16 6h-1.9c-.35 1.2-.875 2.43333-1.575 3.7-.7 1.2667-1.3917 2.2333-2.075 2.9l2.4 2.45-.75 2.05-3.05-3.125ZM15.7 17.2h3.6l-1.8-5.1-1.8 5.1Z" fill="#5EAD05"/></svg>