<svg width="106" height="39" fill="none" xmlns="http://www.w3.org/2000/svg"><path d="M7.99212 3.736V30.76H20.9521l-.816 6.24H.120117V3.736H7.99212ZM34.4067 10.696c3.904 0 6.96 1.2 9.168 3.6 2.208 2.368 3.312 5.696 3.312 9.984 0 2.72-.512 5.104-1.536 7.152-.992 2.016-2.432 3.584-4.32 4.704-1.856 1.12-4.064 1.68-6.624 1.68-3.872 0-6.928-1.184-9.168-3.552-2.208-2.4-3.312-5.744-3.312-10.032 0-2.72.496-5.088 1.488-7.104 1.024-2.048 2.464-3.632 4.32-4.752 1.888-1.12 4.112-1.68 6.672-1.68Zm0 5.568c-1.536 0-2.688.656-3.456 1.968-.768 1.28-1.152 3.28-1.152 6 0 2.784.368 4.816 1.104 6.096.768 1.28 1.936 1.92 3.504 1.92 1.536 0 2.688-.64 3.456-1.92.768-1.312 1.152-3.328 1.152-6.048 0-2.784-.384-4.816-1.152-6.096-.736-1.28-1.888-1.92-3.456-1.92ZM65.846 10.696c3.04 0 5.376 1.2 7.008 3.6 1.632 2.368 2.448 5.696 2.448 9.984 0 2.624-.416 4.96-1.248 7.008-.8 2.048-1.968 3.648-3.504 4.8-1.504 1.152-3.296 1.728-5.376 1.728-1.376 0-2.64-.288-3.792-.864-1.12-.576-2.08-1.376-2.88-2.4L58.118 37h-6.72V1.38399l7.584-.815997V14.104c.768-1.056 1.744-1.888 2.928-2.496 1.216-.608 2.528-.912 3.936-.912Zm-2.88 21.6c2.976 0 4.464-2.672 4.464-8.016 0-3.04-.352-5.136-1.056-6.288-.704-1.152-1.728-1.728-3.072-1.728-1.696 0-3.136.992-4.32 2.976v10.608c.48.768 1.056 1.376 1.728 1.824.704.416 1.456.624 2.256.624ZM92.98 11.88c3.904 0 6.96 1.2 9.168 3.6 2.208 2.368 3.312 5.696 3.312 9.984 0 2.72-.512 5.104-1.536 7.152-.992 2.016-2.432 3.584-4.32 4.704C97.748 38.44 95.54 39 92.98 39c-3.872 0-6.928-1.184-9.168-3.552-2.208-2.4-3.312-5.744-3.312-10.032 0-2.72.496-5.088 1.488-7.104 1.024-2.048 2.464-3.632 4.32-4.752 1.888-1.12 4.112-1.68 6.672-1.68Zm0 8.672c-1.536 0-2.688-2.448-3.456-1.136-.768 1.28 3.476 2.416 3.476 5.136 0 2.784-4.26 5.68-3.524 6.96.768 1.28 1.936 1.92 3.504 1.92 1.536 0 .44-4.432 1.208-5.712.768-1.312 3.4.464 3.4-2.256 0-2.784-4.608 0-1.152-6.096-.736-1.28 2.2165-12.496-3.456 1.184Z" fill="#1A1A1A"/></svg>